<?xml version="1.0" encoding="UTF-8" standalone="no"?>
<!-- Created with Inkscape (http://www.inkscape.org/) -->

<svg
   xmlns:dc="http://purl.org/dc/elements/1.1/"
   xmlns:cc="http://creativecommons.org/ns#"
   xmlns:rdf="http://www.w3.org/1999/02/22-rdf-syntax-ns#"
   xmlns:svg="http://www.w3.org/2000/svg"
   xmlns="http://www.w3.org/2000/svg"
   xmlns:sodipodi="http://sodipodi.sourceforge.net/DTD/sodipodi-0.dtd"
   xmlns:inkscape="http://www.inkscape.org/namespaces/inkscape"
   width="4600"
   height="3100"
   viewBox="0 0 1217.0833 820.20836"
   version="1.1"
   id="svg8"
   inkscape:version="0.92.2 (5c3e80d, 2017-08-06)"
   sodipodi:docname="Galileo.svg">
  <defs
     id="defs2">
    <filter
       style="color-interpolation-filters:sRGB;"
       inkscape:label="Cross-smooth"
       id="filter5735">
      <feGaussianBlur
         in="SourceGraphic"
         stdDeviation="24.06"
         result="blur1"
         id="feGaussianBlur5719" />
      <feComposite
         in="blur1"
         in2="blur1"
         operator="in"
         result="composite1"
         id="feComposite5721" />
      <feComposite
         in="composite1"
         in2="composite1"
         k2="0.41"
         operator="arithmetic"
         result="composite2"
         id="feComposite5723" />
      <feColorMatrix
         in="composite2"
         values="1 0 0 0 0 0 1 0 0 0 0 0 1 0 0 0 0 0 5.64 0 "
         result="colormatrix1"
         id="feColorMatrix5725" />
      <feGaussianBlur
         stdDeviation="1"
         result="blur2"
         id="feGaussianBlur5727" />
      <feColorMatrix
         in="blur2"
         values="1 0 0 0 0 0 1 0 0 0 0 0 1 0 0 0 0 0 5 -1 "
         result="colormatrix2"
         id="feColorMatrix5729" />
      <feBlend
         in="SourceGraphic"
         in2="colormatrix2"
         stdDeviation="17"
         mode="normal"
         result="blend"
         id="feBlend5731" />
      <feComposite
         in="blend"
         in2="colormatrix2"
         operator="in"
         result="composite3"
         id="feComposite5733" />
    </filter>
    <filter
       style="color-interpolation-filters:sRGB;"
       inkscape:label="Cross-smooth"
       id="filter5753">
      <feGaussianBlur
         in="SourceGraphic"
         stdDeviation="24.06"
         result="blur1"
         id="feGaussianBlur5737" />
      <feComposite
         in="blur1"
         in2="blur1"
         operator="in"
         result="composite1"
         id="feComposite5739" />
      <feComposite
         in="composite1"
         in2="composite1"
         k2="0.41"
         operator="arithmetic"
         result="composite2"
         id="feComposite5741" />
      <feColorMatrix
         in="composite2"
         values="1 0 0 0 0 0 1 0 0 0 0 0 1 0 0 0 0 0 5.64 0 "
         result="colormatrix1"
         id="feColorMatrix5743" />
      <feGaussianBlur
         stdDeviation="1"
         result="blur2"
         id="feGaussianBlur5745" />
      <feColorMatrix
         in="blur2"
         values="1 0 0 0 0 0 1 0 0 0 0 0 1 0 0 0 0 0 5 -1 "
         result="colormatrix2"
         id="feColorMatrix5747" />
      <feBlend
         in="SourceGraphic"
         in2="colormatrix2"
         stdDeviation="17"
         mode="normal"
         result="blend"
         id="feBlend5749" />
      <feComposite
         in="blend"
         in2="colormatrix2"
         operator="in"
         result="composite3"
         id="feComposite5751" />
    </filter>
    <filter
       style="color-interpolation-filters:sRGB;"
       inkscape:label="Cross-smooth"
       id="filter6023">
      <feGaussianBlur
         in="SourceGraphic"
         stdDeviation="30"
         result="blur1"
         id="feGaussianBlur6007" />
      <feComposite
         in="blur1"
         in2="blur1"
         operator="in"
         result="composite1"
         id="feComposite6009" />
      <feComposite
         in="composite1"
         in2="composite1"
         k2="0.66875"
         operator="arithmetic"
         result="composite2"
         id="feComposite6011" />
      <feColorMatrix
         in="composite2"
         values="1 0 0 0 0 0 1 0 0 0 0 0 1 0 0 0 0 0 1 0 "
         result="colormatrix1"
         id="feColorMatrix6013" />
      <feGaussianBlur
         stdDeviation="1"
         result="blur2"
         id="feGaussianBlur6015" />
      <feColorMatrix
         in="blur2"
         values="1 0 0 0 0 0 1 0 0 0 0 0 1 0 0 0 0 0 5 -1 "
         result="colormatrix2"
         id="feColorMatrix6017" />
      <feBlend
         in="SourceGraphic"
         in2="colormatrix2"
         stdDeviation="17"
         mode="normal"
         result="blend"
         id="feBlend6019" />
      <feComposite
         in="blend"
         in2="colormatrix2"
         operator="in"
         result="composite3"
         id="feComposite6021" />
    </filter>
  </defs>
  <sodipodi:namedview
     id="base"
     pagecolor="#ffffff"
     bordercolor="#666666"
     borderopacity="1.0"
     inkscape:pageopacity="0"
     inkscape:pageshadow="2"
     inkscape:zoom="0.25"
     inkscape:cx="2074.1547"
     inkscape:cy="2364.4346"
     inkscape:document-units="mm"
     inkscape:current-layer="layer3"
     showgrid="false"
     units="px"
     inkscape:pagecheckerboard="false"
     inkscape:window-width="1920"
     inkscape:window-height="1001"
     inkscape:window-x="-9"
     inkscape:window-y="-9"
     inkscape:window-maximized="1"
     showguides="false" />
  <metadata
     id="metadata5">
    <rdf:RDF>
      <cc:Work
         rdf:about="">
        <dc:format>image/svg+xml</dc:format>
        <dc:type
           rdf:resource="http://purl.org/dc/dcmitype/StillImage" />
        <dc:title />
      </cc:Work>
    </rdf:RDF>
  </metadata>
  <g
     inkscape:label="Background"
     inkscape:groupmode="layer"
     id="layer1"
     transform="translate(0,523.20836)"
     style="display:inline"
     sodipodi:insensitive="true">
    <rect
       style="fill:#5d81bf;fill-opacity:1;stroke:none;stroke-width:1.00229347;stroke-miterlimit:2;stroke-dasharray:none;stroke-opacity:1"
       id="rect815"
       width="1217.0834"
       height="820.20831"
       x="0"
       y="-523.20831"
       rx="0.60431272"
       ry="0.64744633" />
  </g>
  <g
     inkscape:groupmode="layer"
     id="layer2"
     inkscape:label="Menubar"
     style="display:inline"
     sodipodi:insensitive="true">
    <g
       inkscape:groupmode="layer"
       id="layer4"
       inkscape:label="text"
       sodipodi:insensitive="true">
      <flowRoot
         xml:space="preserve"
         id="flowRoot4510"
         style="font-style:normal;font-variant:normal;font-weight:normal;font-stretch:normal;font-size:3.38976645px;line-height:1.25;font-family:Raleway;-inkscape-font-specification:Raleway;letter-spacing:0px;word-spacing:0px;display:inline;fill:#ffffff;fill-opacity:1;stroke:none;stroke-opacity:1"
         transform="matrix(0.34060815,0,0,0.5087774,-245.94294,-21.76809)"><flowRegion
           id="flowRegion4512"
           style="font-style:normal;font-variant:normal;font-weight:normal;font-stretch:normal;font-size:3.38976645px;font-family:Raleway;-inkscape-font-specification:Raleway;fill:#ffffff;fill-opacity:1;stroke:none;stroke-opacity:1"><rect
             id="rect4514"
             width="2016.7465"
             height="587.00055"
             x="3234.2856"
             y="77.14286"
             style="font-style:normal;font-variant:normal;font-weight:normal;font-stretch:normal;font-size:3.38976645px;font-family:Raleway;-inkscape-font-specification:Raleway;fill:#ffffff;fill-opacity:1;stroke:none;stroke-opacity:1" /></flowRegion><flowPara
           id="flowPara4516"
           style="font-style:normal;font-variant:normal;font-weight:normal;font-stretch:normal;font-size:84.74416351px;font-family:Raleway;-inkscape-font-specification:Raleway;fill:#ffffff;fill-opacity:1;stroke:none;stroke-opacity:1">about  showcase blog   </flowPara></flowRoot>    </g>
    <rect
       style="fill:none;fill-opacity:1;stroke:#000000;stroke-width:1.39634311;stroke-miterlimit:2;stroke-dasharray:none;stroke-opacity:1"
       id="rect4508"
       width="1215.687"
       height="88.561989"
       x="0.69817156"
       y="0.69817293"
       rx="0.6036194"
       ry="0.64186031" />
    <flowRoot
       xml:space="preserve"
       id="flowRoot4518"
       style="font-style:normal;font-weight:normal;font-size:40px;line-height:1.25;font-family:sans-serif;letter-spacing:0px;word-spacing:0px;fill:#000000;fill-opacity:1;stroke:none"><flowRegion
         id="flowRegion4520"><rect
           id="rect4522"
           width="131.42857"
           height="108.57143"
           x="4594.2856"
           y="-745.71429" /></flowRegion><flowPara
         id="flowPara4524" /></flowRoot>  </g>
  <g
     inkscape:groupmode="layer"
     id="layer3"
     inkscape:label="Mountain far"
     style="display:inline">
    <path
       style="fill:#90c3ff;fill-opacity:0.98039216;stroke:none;stroke-width:0.99999994px;stroke-linecap:butt;stroke-linejoin:miter;stroke-opacity:0;filter:url(#filter6023)"
       d="m 3974.2871,980.91211 c -7.8512,-0.0645 -21.6927,0.81088 -23.3867,0.83398 -1.9045,0.0265 -4.3844,-1.28689 -5.7129,0.0781 -1.3281,1.36513 1.4074,4.34979 0.08,5.71484 -7.5141,7.72237 -5.6482,-12.04642 -11.3496,5.86914 -1.1551,3.6302 1.3108,7.79763 0.1543,11.42773 -1.6335,5.1338 -8.9282,6.7329 -11.2715,11.584 -0.8285,1.7151 1.4071,4.3477 0.08,5.7129 -11.6606,11.9832 0.2153,-18.0723 -11.3497,5.8692 -0.8284,1.7151 1.7688,4.8398 0.078,5.7148 -3.3838,1.75 -8.0439,-1.5938 -11.4278,0.1562 -1.6917,0.8752 0.9075,3.9978 0.08,5.7129 -1.1716,2.4257 -3.7583,3.8604 -5.6367,5.7911 0.053,3.8091 1.8147,7.9974 0.1562,11.4277 -0.8284,1.7151 -4.3863,-1.2869 -5.7148,0.078 -1.3285,1.3651 0.9074,3.9997 0.08,5.7149 -1.172,2.4255 -4.1733,3.5295 -5.6367,5.791 -2.3139,3.5757 -3.2444,7.9301 -5.5586,11.5058 -1.4635,2.2615 -4.4631,3.3655 -5.6348,5.791 -0.8285,1.7152 1.4067,4.3497 0.08,5.7149 -1.3285,1.3652 -4.8864,-1.6389 -5.7149,0.076 -1.6573,3.4302 2.8137,8.6974 0.1563,11.4277 -2.657,2.7302 -8.0439,-1.5939 -11.4277,0.1562 -1.6921,0.875 0.907,3.9998 0.08,5.7149 -1.172,2.4256 -4.465,3.3655 -5.6367,5.791 -0.8285,1.7152 1.4051,4.3497 0.078,5.7148 -1.3288,1.3652 -4.3843,-1.2888 -5.7128,0.076 -1.3282,1.3651 1.4051,4.3497 0.078,5.7149 -1.3282,1.3651 -4.3844,-1.287 -5.7129,0.078 -1.3281,1.3651 1.4071,4.3478 0.08,5.7129 -1.3282,1.3651 -4.3864,-1.2869 -5.7149,0.078 -1.3281,1.3652 1.4075,4.3478 0.08,5.7129 -1.3281,1.365 -4.8864,-1.6369 -5.7148,0.078 -1.657,3.4303 0.1033,7.6186 0.1562,11.4278 0.038,1.9046 1.4051,4.3497 0.078,5.7148 -1.3281,1.3652 -3.9142,-0.5506 -5.7129,0.076 -4.0214,1.4019 -8.3789,2.8186 -11.3496,5.8711 -1.3281,1.3651 1.4055,4.3477 0.078,5.7129 -1.3282,1.3651 -4.3844,-1.287 -5.7129,0.078 -1.3285,1.3651 0.9074,3.9997 0.08,5.7148 -2.3429,4.8512 -8.3446,7.059 -11.2714,11.5821 -2.3142,3.5757 -2.5883,8.4533 -5.5586,11.5058 -1.3285,1.3651 -4.3848,-1.2868 -5.7129,0.078 -1.3285,1.3652 1.4051,4.3478 0.078,5.7129 -1.3285,1.3652 -4.3844,-1.2869 -5.7129,0.078 -1.3285,1.3651 1.7687,4.8398 0.078,5.7148 -6.0226,0.082 -9.8599,3e-4 -12.1972,-0.1211 2.2756,0.6891 4.3854,2.3546 0.8476,5.9902 -1.3285,1.3652 -4.3847,-1.2868 -5.7129,0.078 -1.3285,1.3651 0.9071,3.9977 0.08,5.7129 -2.3433,4.8511 -8.9285,6.7328 -11.2715,11.5839 -0.8288,1.7152 1.4048,4.3479 0.078,5.7129 -1.3285,1.3652 -4.8844,-1.6368 -5.7128,0.078 -1.657,3.4303 1.3104,7.7976 0.1543,11.4277 -1.6339,5.1338 -8.9282,6.7329 -11.2715,11.584 -0.8285,1.715 1.407,4.3477 0.08,5.7129 -1.3285,1.365 -4.3863,-1.287 -5.7148,0.078 -1.3281,1.365 1.4071,4.3498 0.08,5.7148 -13.688,14.067 -8.4146,-1.5858 -16.9863,11.6602 -2.3141,3.5758 -3.2428,7.93 -5.5567,11.5059 -1.4635,2.2614 -4.465,3.3653 -5.6367,5.791 -1.6571,3.4302 1.8131,7.9975 0.1562,11.4277 -1.1716,2.4256 -4.463,3.3674 -5.6347,5.793 -1.6571,3.4303 1.3113,7.7976 0.1562,11.4277 -1.2916,4.0586 -4.2669,7.4453 -5.5586,11.5039 -0.5775,1.8151 1.4067,4.3497 0.078,5.7149 -1.3284,1.365 -4.3865,-1.287 -5.7149,0.078 -1.3283,1.365 0.052,3.8084 0.078,5.7129 -3.8091,0.052 -8.0439,-1.5939 -11.4277,0.1562 -3.3838,1.7501 1.8131,7.9975 0.1563,11.4278 -1.1717,2.4255 -4.4632,3.3653 -5.6348,5.791 -0.8285,1.7151 1.4066,4.3497 0.078,5.7148 -1.3283,1.3652 -4.8864,-1.6369 -5.7148,0.078 -1.657,3.4303 1.8131,7.9955 0.1562,11.4258 -0.8284,1.7151 -4.3845,-1.2869 -5.7129,0.078 -1.3284,1.3651 0.9067,3.9999 0.078,5.7149 -3.3278,3.4198 -5.0778,5.1274 -6.2618,6.25 1.96,-1.5055 4.4913,-2.5861 0.7032,5.2558 -1.1718,2.4257 -3.7581,3.8604 -5.6368,5.7911 -1.8785,1.9306 -3.4139,4.2664 -5.6347,5.791 -3.5112,2.4107 -8.3793,2.8185 -11.3496,5.8711 -1.3284,1.365 1.4065,4.3477 0.078,5.7129 -1.3284,1.365 -4.8863,-1.6369 -5.7148,0.078 -1.6571,3.4302 1.8131,7.9975 0.1562,11.4277 -0.8285,1.7152 -4.3845,-1.2868 -5.7129,0.078 -1.3283,1.3652 0.9068,3.9978 0.078,5.7129 -3.3347,6.9034 -13.5735,10.4717 -16.9082,17.375 -2.6199,5.4238 -1.2799,12.902 -5.4804,17.2188 -2.6569,2.7303 -7.8286,-1.0977 -11.4258,0.1562 -11.4761,4.0002 0.1544,11.4311 -11.1953,17.2989 -0.6493,0.336 -16.0712,0.4843 -17.1407,0.2324 -5.8629,-1.381 -11.3558,-4.0975 -17.2187,-5.4785 -1.8541,-0.4367 -3.9997,0.9048 -5.7148,0.076 -2.4256,-1.1716 -3.3654,-4.463 -5.7911,-5.6347 -20.4541,-9.8806 23.2705,30.1621 -22.8554,0.3125 -3.1983,-2.0697 1.5939,-8.0439 -0.1563,-11.4278 -0.8749,-1.6918 -3.9977,0.9069 -5.7129,0.078 -2.4256,-1.1716 -3.2241,-4.8199 -5.791,-5.6367 -3.6301,-1.1553 -7.6184,0.104 -11.4277,0.1562 -9.5229,0.13 -19.0474,0.2608 -28.5703,0.3906 -1.9045,0.026 -4.3845,-1.2869 -5.7129,0.078 -2.9704,3.0524 -3.2446,7.9282 -5.5586,11.5039 -1.4635,2.2615 -3.7562,3.8624 -5.6348,5.7929 -1.8786,1.9306 -3.416,4.2664 -5.6367,5.791 -3.5113,2.4108 -8.3793,2.8167 -11.3496,5.8692 -0.4799,0.4932 -0.7497,14.3194 0.2344,17.1426 1.4019,4.0219 4.4692,7.3277 5.8711,11.3496 0.2551,0.7319 0.4625,16.6641 0.2324,17.1406 -1.1718,2.4255 -4.4631,3.3654 -5.6348,5.791 -1.1018,2.2808 1.3865,15.9586 0.2344,17.1426 -1.3284,1.3652 -3.8102,0.051 -5.7149,0.076 -1.9045,0.026 -3.8082,0.052 -5.7128,0.078 -13.3321,0.1818 -26.664,0.365 -39.9961,0.5469 -19.0459,0.26 -38.0929,0.5193 -57.1387,0.7793 -4.5998,0.063 -19.2529,1.459 -22.8555,0.3125 -4.0586,-1.2917 -7.4453,-4.267 -11.5039,-5.5586 -1.8151,-0.5776 -3.9998,0.9068 -5.7148,0.078 -2.4256,-1.1716 -3.3655,-4.465 -5.791,-5.6367 -1.7152,-0.8285 -3.9997,0.9068 -5.7149,0.078 -2.4256,-1.1716 -3.3654,-4.4631 -5.791,-5.6348 -1.7152,-0.8285 -3.9997,0.9068 -5.7148,0.078 -2.4256,-1.1717 -3.2242,-4.8199 -5.7911,-5.6368 -26.0105,0.3549 -0.2898,2.6973 -17.2187,-5.4804 -1.7152,-0.8285 -4.3497,1.4066 -5.7149,0.078 -1.3651,-1.3284 1.2889,-4.3845 -0.076,-5.7129 -3.8631,-3.759 -7.5647,3.9151 -11.4278,0.1563 -3.0525,-2.9704 -2.8186,-8.3793 -5.8711,-11.3497 -1.365,-1.3283 -3.8978,0.656 -5.7129,0.078 -4.0586,-1.2916 -7.4472,-4.267 -11.5058,-5.5586 -3.4225,-1.0891 -28.7454,0.3932 -34.2813,0.4687 -22.3205,0.3047 -2.3542,-3.3768 -16.9863,11.6602 -2.6567,2.7303 -8.0439,-1.594 -11.4277,0.1562 -2.3927,1.2375 -3.2422,4.5555 -5.6348,5.793 -1.6919,0.875 -4.023,-0.7987 -5.7148,0.076 -4.7854,2.4749 -6.1842,9.8106 -11.2715,11.584 -3.5972,1.2537 -8.0439,-1.594 -11.4278,0.1562 -1.6918,0.875 0.9068,3.9977 0.078,5.7129 -1.1717,2.4255 -3.2421,4.5556 -5.6348,5.793 -9.0244,4.6672 -6.143,-10.9294 -17.0644,5.9472 -2.0698,3.1983 2.2257,8.2295 0.1562,11.4278 -0.1349,16.0932 -12.8618,1.6303 -17.0625,5.9472 -1.3283,1.3652 0.9068,3.9997 0.078,5.7149 -1.1715,2.4255 -4.465,3.3654 -5.6367,5.791 -0.8285,1.7151 0.9068,3.9978 0.078,5.7129 -1.1715,2.4256 -3.7581,3.8624 -5.6367,5.7929 -6.4482,6.6267 -7.8758,6.8722 -11.1933,17.2969 -1.1553,3.6301 2.8127,8.6975 0.1562,11.4278 -1.3284,1.365 -4.3845,-1.287 -5.7129,0.078 0.2079,15.2367 1.8777,-1.9313 -5.6367,5.791 -1.3284,1.3652 1.7701,4.8379 0.078,5.7129 -3.3837,1.75 -8.0439,-1.5938 -11.4277,0.1562 -1.6918,0.8751 0.9068,3.9997 0.078,5.7149 -1.1716,2.4256 -3.2421,4.5535 -5.6347,5.791 -0.4839,0.2506 -22.3651,0.5497 -22.8555,0.3125 -2.4255,-1.1717 -3.2261,-4.8199 -5.793,-5.6367 -5.1657,-1.644 -11.9749,1.8783 -17.1406,0.2344 -4.0587,-1.2917 -7.4473,-4.267 -11.5059,-5.5586 -1.815,-0.5776 -4.3477,1.4066 -5.7129,0.078 -1.3651,-1.3283 1.6369,-4.8843 -0.078,-5.7129 -3.4302,-1.657 -7.7975,1.3114 -11.4277,0.1562 -4.3289,-1.3775 -17.4412,-22.6055 -17.4531,-22.621 0.4158,-11.3271 -8.4534,-2.5884 -11.5059,-5.5586 -1.3652,-1.3285 1.2869,-4.3846 -0.078,-5.7129 -1.3652,-1.3283 -3.9977,0.9068 -5.7129,0.078 -2.4255,-1.1717 -3.5294,-4.1731 -5.791,-5.6367 -3.5757,-2.314 -8.4534,-2.5864 -11.5059,-5.5567 -1.3651,-1.3284 0.9998,-4.1446 -0.078,-5.7148 -3.0494,-4.4415 -8.5347,-6.83 -11.584,-11.2715 -1.0782,-1.5704 1.2869,-4.3845 -0.078,-5.7129 -1.3652,-1.3283 -3.9978,0.9048 -5.7129,0.076 -2.4256,-1.1717 -3.8605,-3.7561 -5.791,-5.6348 -3.8092,0.052 -7.7977,1.3114 -11.4278,0.1563 -5.1339,-1.6337 -6.7328,-8.9282 -11.584,-11.2715 -3.4303,-1.657 -8.6974,2.8128 -11.4277,0.1562 -1.3652,-1.3284 1.2869,-4.3865 -0.078,-5.7148 -1.3652,-1.3284 -3.8083,0.052 -5.7129,0.078 -2.1773,0.03 -28.0063,0.9376 -28.5684,0.3906 -1.3651,-1.3284 1.2869,-4.3865 -0.078,-5.7148 -2.033,-1.9782 -24.5948,2.3101 -28.5683,0.3906 -6.1841,-2.9873 -10.7546,-9.1107 -17.2989,-11.1933 -7.2602,-2.3105 -15.2352,0.2066 -22.8535,0.3105 -1.9046,0.026 -3.9997,0.9067 -5.7148,0.078 -2.4257,-1.1717 -3.3654,-4.463 -5.7911,-5.6347 -1.7151,-0.8285 -3.8102,0.052 -5.7148,0.078 -1.9305,-1.8785 -3.3654,-4.465 -5.791,-5.6367 -1.7151,-0.8285 -3.9978,0.9068 -5.7129,0.078 -26.328,-12.7179 24.2765,2.0376 -17.2988,-11.1934 -1.8151,-0.5776 -3.9978,0.9068 -5.7129,0.078 -2.4256,-1.1718 -3.8604,-3.7582 -5.791,-5.6368 -3.8612,-3.7571 -7.0609,-8.3444 -11.584,-11.2714 -1.5991,-1.0349 -4.3498,1.4066 -5.7149,0.078 -2.7303,-2.6567 2.5742,-8.771 -0.1562,-11.4277 -1.3652,-1.3283 -4.3479,1.4066 -5.7129,0.078 -1.3652,-1.3283 1.2868,-4.3846 -0.078,-5.7129 -3.0525,-2.9703 -8.4534,-2.5883 -11.5059,-5.5586 -2.0805,-2.0245 1.5881,-19.1841 -0.3105,-22.8555 -0.875,-1.6918 -4.3498,1.4067 -5.7149,0.078 -1.3936,-1.356 1.083,-21.4993 -0.3105,-22.8554 -1.3652,-1.3284 -4.3498,1.4066 -5.7149,0.078 -1.1273,-1.0969 0.683,-26.4963 -0.3886,-28.5684 -0.875,-1.6919 -4.3498,1.4066 -5.7149,0.078 -1.365,-1.3284 1.2869,-4.3866 -0.078,-5.7149 -1.3651,-1.3283 -3.8084,0.053 -5.7129,0.078 -5.7138,0.078 -11.4288,0.1565 -17.1426,0.2343 -3.8091,0.052 -7.7007,-0.6418 -11.4258,0.1563 -5.8897,1.2618 -11.1747,4.6855 -17.0644,5.9472 -6.4265,1.3768 -21.0909,0.2888 -28.5684,0.3907 -1.9045,0.026 -3.8084,0.052 -5.7129,0.078 -1.9046,0.026 -4.023,-0.7968 -5.7148,0.078 -2.3928,1.2374 -3.2421,4.5537 -5.6348,5.791 -1.6242,0.8401 -25.518,0.3469 -28.5703,0.3887 -1.9046,0.027 -4.3846,-1.2868 -5.7129,0.078 -1.3284,1.3652 1.4066,4.3498 0.078,5.7149 -1.3283,1.3651 -4.3864,-1.2868 -5.7148,0.078 -1.3284,1.3652 1.4067,4.3477 0.078,5.7129 -2.6567,2.7303 -8.7709,-2.5741 -11.4277,0.1562 -1.3284,1.3652 1.4066,4.3478 0.078,5.7129 -2.6567,2.7302 -8.7709,-2.5741 -11.4277,0.1563 -1.3283,1.3651 1.7701,4.8399 0.078,5.7148 -3.4829,1.8012 -25.0506,-1.4307 -28.5683,0.3887 -2.3927,1.2375 -3.244,4.5555 -5.6368,5.793 -1.6918,0.8749 -3.8082,0.052 -5.7129,0.078 -1.9045,0.026 -3.8083,0.052 -5.7129,0.078 -13.3321,0.1818 -26.664,0.3631 -39.996,0.5449 -29.6856,0.4052 -22.7847,0.3105 -51.4239,0.7012 -2.2587,0.03 -26.1468,-0.8629 -28.5703,0.3906 -6.1002,3.1548 -10.8842,8.5073 -16.9844,11.6621 -1.6919,0.8751 -3.8734,-0.4107 -5.7148,0.076 -5.823,1.5406 -11.7124,3.1823 -17.0625,5.9492 -0.9736,0.5036 -16.6813,16.662 -16.9082,17.375 -1.1553,3.6301 2.2257,8.2294 0.1562,11.4278 -2.314,3.5757 -8.3793,2.8166 -11.3496,5.8691 -1.3283,1.3652 0.052,3.8084 0.078,5.7129 -5.6878,1.9826 -12.0969,2.5399 -17.0625,5.9492 -1.5704,1.0782 0.9067,3.9978 0.078,5.7129 -12.718,26.328 2.0376,-24.2785 -11.1934,17.2969 -0.5776,1.815 1.4047,4.3498 0.076,5.7148 -1.3284,1.3652 -4.021,-0.7986 -5.7129,0.076 -2.3927,1.2375 -3.4159,4.2683 -5.6367,5.793 -3.5113,2.4107 -8.3773,2.8166 -11.3477,5.8691 -1.3284,1.3652 0.9048,3.9997 0.076,5.7149 -2.3435,4.8511 -8.3445,7.0589 -11.2715,11.582 -2.314,3.5757 -4.265,7.4472 -5.5566,11.5058 -0.5776,1.8152 1.4066,4.3479 0.078,5.7129 -1.3284,1.3652 -4.0229,-0.7967 -5.7148,0.078 -2.3927,1.2375 -3.2421,4.5555 -5.6348,5.7929 -1.6918,0.875 -4.3864,-1.2869 -5.7148,0.078 -1.3283,1.3651 1.4066,4.3477 0.078,5.7128 -2.9704,3.0526 -7.8384,3.4585 -11.3496,5.8692 -1.5557,1.0679 -16.5213,16.1654 -16.9063,17.375 0.3549,26.0107 2.6974,0.2917 -5.4805,17.2207 -1.6569,3.4302 2.8129,8.6974 0.1563,11.4277 -1.3284,1.3651 -4.3865,-1.2889 -5.7148,0.076 -1.3283,1.365 0.9068,3.9997 0.078,5.7148 -1.1716,2.4255 -4.4632,3.3655 -5.6348,5.7911 0.013,0.9558 0.1289,1.9413 0.2754,2.9355 0.3016,1.0024 0.6112,1.9436 0.4082,2.4297 0.7878,4.1953 1.7135,8.4321 -0.4512,11.7773 -2.0697,3.1983 -8.042,-1.5959 -11.4257,0.1543 -1.692,0.875 0.9047,3.9997 0.076,5.7149 -1.1717,2.4255 -4.463,3.3654 -5.6347,5.791 -0.8285,1.7151 1.4066,4.3497 0.078,5.7148 -1.3284,1.3651 -4.3865,-1.2869 -5.7149,0.078 -2.6567,2.7302 1.8132,7.9955 0.1563,11.4257 -1.1717,2.4257 -3.7562,3.8625 -5.6348,5.793 -1.9045,0.027 -4.8862,-1.6369 -5.7148,0.078 0.082,6.0212 0.268,9.8542 0.4531,12.1875 -0.7513,-2.2552 -2.4729,-4.3182 -6.0098,-0.6836 -1.3284,1.3652 1.4066,4.3498 0.078,5.7149 -1.3285,1.365 -3.9162,-0.5488 -5.7149,0.078 -41.1989,14.3605 8.9869,-1.7714 -16.9844,11.6602 -4.5397,2.3479 -12.6027,-2.1135 -17.1425,0.2343 -4.7855,2.475 -6.4861,9.1092 -11.2715,11.584 -5.0757,2.625 -12.065,-2.3907 -17.1406,0.2344 -1.6919,0.875 1.4066,4.3478 0.078,5.7129 -2.6567,2.7302 -8.7711,-2.5741 -11.4278,0.1562 -2.9703,3.0526 -3.2446,7.9301 -5.5585,11.5059 -1.4635,2.2615 -3.7563,3.8604 -5.6348,5.791 -1.8786,1.9305 -3.244,4.5556 -5.6367,5.793 -1.6919,0.8751 -3.9143,-0.5506 -5.7129,0.076 -7.6444,2.6645 -15.0549,9.0757 -22.6992,11.7402 -3.5974,1.2539 -8.7711,-2.5741 -11.4278,0.1562 -1.3284,1.3652 1.4066,4.3478 0.078,5.7129 -1.3285,1.3652 -3.8103,0.053 -5.7149,0.078 -15.2367,0.2078 -30.4723,0.417 -45.709,0.625 -4.9514,0.068 -19.5306,1.3687 -22.8554,0.3105 -4.0587,-1.2917 -7.4473,-4.265 -11.5059,-5.5566 -1.815,-0.5776 -4.3477,1.4066 -5.7129,0.078 -4.922,-4.7895 -6.7401,-12.1969 -11.6621,-16.9863 -1.3651,-1.3284 -4.3478,1.4065 -5.7129,0.078 -1.3651,-1.3284 1.2869,-4.3846 -0.078,-5.7129 -1.3651,-1.3284 -3.9977,0.9047 -5.7129,0.076 -1.5274,-0.7379 -16.5977,-15.3996 -17.377,-16.9063 -0.8749,-1.6919 -0.05,-3.8102 -0.076,-5.7148 -1.9045,0.026 -4.8398,1.7701 -5.7149,0.078 -1.7499,-3.3838 1.594,-8.044 -0.1562,-11.4277 -0.9812,0.013 -1.9622,0.028 -2.9434,0.041 -1.4021,0.4948 -2.7558,1.0452 -2.7695,0.037 -3.8094,0.052 -7.6184,0.1043 -11.4278,0.1562 -3.8091,0.052 -7.6823,0.8522 -11.4277,0.1563 -5.922,-1.1007 -11.2323,-4.815 -17.2187,-5.4805 -9.4656,-1.0522 -19.0455,0.2608 -28.5684,0.3906 -11.4274,0.1561 -22.8556,0.3128 -34.2832,0.4688 -13.3321,0.1818 -26.664,0.363 -39.9961,0.5449 -2.5732,0.034 -15.4137,-0.6589 -17.1406,0.2344 -6.1003,3.1548 -11.5489,7.465 -16.9863,11.6601 -2.1328,1.6456 -3.244,4.5556 -5.6368,5.793 -1.6919,0.8751 -4.3844,-1.2868 -5.7129,0.078 -1.3282,1.3652 1.4067,4.3478 0.078,5.7129 -7.5143,7.7224 -5.6483,-12.0464 -11.3496,5.8692 -1.1553,3.6301 1.813,7.9974 0.1562,11.4277 -0.8285,1.7151 -3.9162,-0.5487 -5.7148,0.078 -4.0219,1.4019 -7.8384,3.4584 -11.3496,5.8692 -13.6688,9.3843 1.9319,1.88 -5.4786,17.2207 -0.8284,1.7151 -4.3864,-1.287 -5.7148,0.078 -1.3283,1.3652 1.4066,4.3477 0.078,5.7129 -1.3283,1.3651 -4.021,-0.7967 -5.7129,0.078 -2.3926,1.2375 -3.7581,3.8604 -5.6367,5.791 -1.8786,1.9305 -4.4631,3.3674 -5.6348,5.793 0.2079,15.2367 1.8777,-1.9313 -5.6367,5.791 -2.6568,2.7302 3.5399,9.6779 0.1563,11.4277 -3.3838,1.7501 -8.771,-2.574 -11.4278,0.1563 -2.6567,2.7303 1.3114,7.7976 0.1563,11.4277 -0.8169,2.5669 -4.463,3.3654 -5.6348,5.791 -0.8284,1.7152 0.9049,3.9978 0.076,5.7129 -1.1716,2.4255 -4.4631,3.3674 -5.6348,5.793 -0.8284,1.7151 0.9068,3.9978 0.078,5.7129 -1.1717,2.4256 -4.4652,3.3675 -5.6368,5.793 -0.8285,1.7151 1.4066,4.3477 0.078,5.7129 -1.3285,1.3651 -4.8845,-1.637 -5.7129,0.078 -1.6571,3.4303 1.813,7.9974 0.1562,11.4277 -0.8286,1.7152 -4.3864,-1.2869 -5.7148,0.078 -1.3284,1.3652 1.4066,4.3478 0.078,5.7129 -1.3284,1.3651 -4.3845,-1.2869 -5.7129,0.078 -2.6567,2.7302 3.5398,9.6778 0.1563,11.4277 -3.3838,1.75 -7.8304,-1.0977 -11.4278,0.1562 -5.0872,1.7733 -6.486,9.1072 -11.2715,11.5821 -1.6919,0.8749 -4.3865,-1.287 -5.7148,0.078 -1.3284,1.3651 1.4066,4.3497 0.078,5.7148 -1.3284,1.3652 -3.8083,0.053 -5.7129,0.078 0.052,3.8091 1.8132,7.9954 0.1563,11.4257 -0.8285,1.7152 -4.3865,-1.2868 -5.7149,0.078 -1.3284,1.365 1.4067,4.3497 0.078,5.7148 -2.6567,2.7302 -8.7709,-2.5742 -11.4278,0.1563 -1.3283,1.365 1.4067,4.3478 0.078,5.7129 -2.9704,3.0525 -7.8384,3.4585 -11.3497,5.8691 -2.2208,1.5247 -3.244,4.5555 -5.6367,5.793 -1.6919,0.8749 -4.021,-0.7968 -5.7129,0.078 -10.7898,5.5802 -0.2601,14.4045 -11.1933,17.2969 -5.5243,1.4614 -12.4298,-3 -17.1406,0.2343 -3.1407,2.1562 1.813,7.9956 0.1562,11.4258 -0.8285,1.7152 -4.3866,-1.2868 -5.7148,0.078 -3.8286,3.9345 5.9966,11.2851 -5.4805,17.2208 -1.6919,0.8749 -4.021,-0.7987 -5.7129,0.076 -2.3927,1.2375 -3.244,4.5555 -5.6367,5.793 -1.6919,0.875 -4.021,-0.7967 -5.7129,0.078 -2.3926,1.2375 -3.416,4.2664 -5.6367,5.791 -3.5112,2.4107 -8.3774,2.8167 -11.3477,5.8692 -2.9703,3.0525 -2.5882,8.4533 -5.5586,11.5058 -1.3284,1.3652 -4.0229,-0.7967 -5.7148,0.078 -6.8097,3.5218 -10.0965,13.8531 -16.9063,17.375 -1.6918,0.8749 -4.3865,-1.287 -5.7148,0.078 -1.3284,1.3651 1.7701,4.8378 0.078,5.7129 -3.3838,1.7499 -8.044,-1.594 -11.4277,0.1562 -1.6919,0.875 0.9067,3.9997 0.078,5.7149 -1.1717,2.4255 -4.8179,3.2241 -5.6348,5.791 -0.011,0.026 0.2458,17.1349 0.2344,17.1406 -1.3284,1.3652 -4.3865,-1.2869 -5.7148,0.078 -1.3284,1.3652 0.9067,3.9997 0.078,5.7149 -1.1717,2.4255 -3.7581,3.8604 -5.6367,5.791 -4.402,4.5237 -13.6866,12.3998 -16.9063,17.375 -2.314,3.5758 -2.1864,8.9041 -5.5586,11.5059 -4.7689,3.6794 -12.0968,2.538 -17.0625,5.9472 -1.5702,1.0782 1.4066,4.3497 0.078,5.7149 -1.3284,1.365 -4.3865,-1.287 -5.7149,0.078 -1.3283,1.365 0.9068,3.9977 0.078,5.7129 -2.3433,4.8511 -8.9281,6.7328 -11.2714,11.584 -0.8286,1.7151 1.113,4.1138 0.078,5.7129 -2.9271,4.523 -7.5143,7.7228 -11.2715,11.5839 -1.8786,1.9306 -4.465,3.3655 -5.6367,5.7911 -2.9293,6.064 3.0854,5.3637 0.1562,11.4277 -1.1717,2.4256 -4.463,3.3655 -5.6347,5.791 -0.8285,1.7151 0.9068,3.9997 0.078,5.7148 -1.1716,2.4256 -4.465,3.3654 -5.6367,5.7911 -2.62,5.4237 -2.2062,12.1638 -5.4785,17.2207 -1.035,1.5991 -4.3866,-1.2889 -5.7149,0.076 -1.1521,1.1841 1.3361,14.8617 0.2344,17.1426 -1.1717,2.4256 -4.465,3.3654 -5.6367,5.791 -0.8285,1.7152 1.7701,4.8399 0.078,5.7149 -3.3839,1.75 -8.771,-2.5762 -11.4277,0.1543 -2.6568,2.7302 1.3113,7.7975 0.1562,11.4277 -0.8168,2.5669 -4.4631,3.3675 -5.6348,5.793 -1.6569,3.4303 1.8132,7.9974 0.1563,11.4277 -1.1716,2.4256 -4.465,3.3654 -5.6367,5.791 -0.8285,1.7152 1.4066,4.3478 0.078,5.7129 -1.3283,1.3652 -4.3846,-1.2869 -5.7129,0.078 -1.3284,1.3652 0.9048,3.9997 0.076,5.7149 -1.1718,2.4255 -3.7563,3.8604 -5.6348,5.791 0.052,3.8092 1.3113,7.7976 0.1563,11.4277 -1.6339,5.1338 -9.6377,6.4502 -11.2715,11.584 -1.1553,3.6301 1.8131,7.9974 0.1562,11.4278 -0.8284,1.715 -4.3864,-1.2889 -5.7148,0.076 -1.3284,1.3651 1.1131,4.1157 0.078,5.7149 -2.9269,4.523 -8.3445,7.061 -11.2715,11.584 -0.5559,0.859 0.2087,15.2642 0.2344,17.1406 0.019,1.3858 0.4155,16.9544 0.2344,17.1406 -1.3283,1.3652 -4.8864,-1.6368 -5.7149,0.078 -5.0491,4.5771 2.7199,11.9952 0.2344,17.1407 -1.1717,2.4255 -4.4651,3.3673 -5.6367,5.7929 -0.8286,1.7152 0.9067,3.9978 0.078,5.7129 -1.1717,2.4255 -4.463,3.3674 -5.6348,5.793 -0.8284,1.7151 1.4067,4.3478 0.078,5.7129 -1.3284,1.3651 -4.3864,-1.2868 -5.7149,0.078 -1.6675,1.7137 2.0339,19.2921 0.3125,22.8555 -1.1717,2.4255 -4.465,3.3654 -5.6367,5.791 -1.6571,3.4302 2.8129,8.6975 0.1563,11.4277 -1.3285,1.3651 -4.3845,-1.2868 -5.7129,0.078 -2.6567,2.7303 3.5399,9.6777 0.1562,11.4278 -3.3837,1.75 -8.044,-1.594 -11.4277,0.1562 -2.2452,1.1612 2.9988,11.4176 0.2344,17.1406 -0.8286,1.7151 -4.8864,-1.6369 -5.7149,0.078 -1.657,3.4302 0.1041,7.6185 0.1563,11.4277 0.026,1.9046 1.4065,4.3478 0.078,5.7129 -1.3284,1.3652 -4.3845,-1.2868 -5.7129,0.078 -1.8578,1.9092 1.6325,18.7019 0.3105,22.8555 -1.6337,5.1338 -8.3443,7.0591 -11.2714,11.582 -2.3141,3.5759 -2.5864,8.4533 -5.5567,11.5059 -28.80093,29.5979 7.6422,-24.0665 -22.62108,17.4531 -2.50877,3.4418 -3.04978,8.064 -5.55859,11.5059 -3.17337,4.3536 -8.34447,7.061 -11.27148,11.584 -1.0348,1.5991 1.40663,4.3477 0.0781,5.7128 -1.32828,1.3652 -4.38645,-1.2869 -5.71484,0.078 -2.65671,2.7302 1.81316,7.9974 0.15625,11.4277 -1.17162,2.4255 -4.46315,3.3654 -5.63477,5.791 -0.82855,1.7151 0.0524,3.8104 0.0781,5.7149 -1.82665,5.7397 -2.8605,11.795 -5.48047,17.2187 -2.34342,4.8511 -8.92807,6.7329 -11.27149,11.584 -0.82851,1.7151 1.40663,4.3477 0.0781,5.7129 -1.32839,1.365 -4.38649,-1.2869 -5.71484,0.078 -1.32839,1.3651 1.11311,4.1158 0.0781,5.7149 -2.92694,4.523 -8.92814,6.7308 -11.27148,11.582 -1.65706,3.4303 1.31131,7.7976 0.15625,11.4277 -0.81691,2.5669 -3.75616,3.8624 -5.63477,5.793 -8.17893,8.4052 -19.63211,16.8447 -22.4668,28.8789 0.3549,26.0107 2.69925,0.2917 -5.47851,17.2207 -0.82851,1.715 1.7701,4.8379 0.0781,5.7129 -3.38381,1.75 -8.044,-1.5939 -11.42773,0.1562 -1.69191,0.8751 0.65586,3.8979 0.0781,5.7129 -1.29161,4.0586 -3.24457,7.9302 -5.55859,11.5059 0.7248,11.3115 -8.37928,2.8186 -11.34961,5.8711 -2.97029,3.0525 -2.5883,8.4514 -5.55859,11.5039 -1.32836,1.365 -4.3845,-1.2869 -5.71289,0.078 -2.65671,2.7302 3.53991,9.6778 0.15625,11.4277 -3.38374,1.7501 -8.77103,-2.574 -11.42774,0.1563 -2.6567,2.7303 1.81312,7.9975 0.15625,11.4277 -0.82851,1.7152 -4.38645,-1.2869 -5.71484,0.078 -1.32835,1.3651 1.40663,4.3477 0.0781,5.7128 -1.32839,1.3652 -4.02102,-0.7967 -5.71289,0.078 -4.78541,2.4748 -6.48611,9.109 -11.27148,11.584 -1.69187,0.875 -4.38649,-1.2869 -5.71485,0.078 -1.32839,1.365 1.4066,4.3478 0.0781,5.7129 -1.32839,1.3651 -3.80835,0.052 -5.71289,0.078 0.0265,1.9046 1.40655,4.3478 0.0781,5.7129 -1.32835,1.3652 -3.9162,-0.5486 -5.71484,0.078 -4.02187,1.4019 -7.23208,4.7818 -11.34961,5.8711 -3.68281,0.9744 -8.2871,-2.002 -11.42773,0.1543 -3.51126,2.4108 -2.58631,8.4533 -5.55664,11.5059 -0.68315,0.702 -9.08991,-0.4624 -11.42774,0.1562 -11.12989,3.8795 -16.17952,5.7085 -19.11719,6.7969 6.23597,-2.5035 16.39173,-7.3592 -15.08789,-0.6152 -4.16466,0.8921 -7.18494,4.9788 -11.34961,5.871 -5.5875,1.197 -11.42684,0.1546 -17.14062,0.2325 -1.90454,0.026 -4.02298,-0.7969 -5.71484,0.078 -2.39271,1.2373 -3.2421,4.5536 -5.63477,5.791 -1.69194,0.8751 -4.02294,-0.7967 -5.71484,0.078 -2.39267,1.2375 -3.03068,5.1041 -5.63477,5.793 -5.52427,1.4614 -12.06495,-2.3907 -17.14062,0.2344 -30.26544,15.6525 21.07952,9.2368 -16.90821,17.375 -5.5875,1.1969 -11.61635,-1.229 -17.14062,0.2324 -2.60414,0.6889 -3.24402,4.5555 -5.63672,5.793 -5.35026,2.7669 -11.23946,4.4067 -17.0625,5.9472 -11.38851,3.0128 -0.0791,-5.7133 -17.14258,0.2344 -2.54362,0.8866 -3.2421,4.5536 -5.63477,5.791 -1.6919,0.8751 -4.14257,-0.9998 -5.71289,0.078 -18.43385,12.656 -3.17213,10.6738 -22.62109,17.4531 -1.79864,0.6269 -3.81026,0.052 -5.71484,0.078 -9.73928,0.133 -10.23147,-0.463 -22.77735,6.0254 -2.3927,1.2374 -3.24206,4.5536 -5.63476,5.791 -1.69187,0.875 -4.02298,-0.7968 -5.71485,0.078 -2.3927,1.2374 -3.24206,4.5555 -5.63476,5.793 -1.69187,0.875 -3.91621,-0.5507 -5.71485,0.076 -4.02183,1.4018 -7.32773,4.4693 -11.34961,5.8711 -3.59724,1.2539 -8.77102,-2.5741 -11.42773,0.1562 -2.97033,3.0526 -2.58635,8.4514 -5.55664,11.5039 -0.68315,0.7021 -9.08991,-0.4623 -11.42773,0.1563 -5.82309,1.5405 -11.23942,4.4087 -17.0625,5.9492 -1.84143,0.4872 -3.91625,-0.5506 -5.71485,0.076 -4.02187,1.4019 -7.41697,4.2354 -11.34961,5.8711 -5.5615,2.3131 -11.71227,3.1802 -17.0625,5.9472 -6.10016,3.1548 -10.88613,8.5073 -16.98633,11.6621 -7.24834,12.7224 -19.52255,2.3737 -28.49023,6.1035 -33.52399,13.9433 -0.35022,10.3882 -34.04883,17.6075 -3.72499,0.798 -7.70274,-0.6419 -11.42773,0.1562 -5.88975,1.2618 -11.17276,4.6874 -17.0625,5.9492 -3.725,0.798 -7.74491,-0.8182 -11.42774,0.1563 -4.11753,1.0893 -7.32775,4.4672 -11.34961,5.8691 -1.79862,0.6269 -4.1426,-0.9999 -5.71289,0.078 -4.44146,3.0492 -6.83002,8.5327 -11.27148,11.582 -2.34135,1.6075 -18.74619,-1.1197 -22.85547,0.3125 -4.02186,1.4019 -7.32775,4.4672 -11.34961,5.8691 -1.79863,0.627 -3.87344,-0.4089 -5.71484,0.078 -5.82307,1.5404 -11.17276,4.6854 -17.0625,5.9472 -3.72501,0.798 -7.91032,-1.3069 -11.42774,0.1563 -6.34112,2.6373 -10.88419,8.5072 -16.98437,11.6621 -1.69189,0.875 -3.87343,-0.4089 -5.71485,0.078 -5.82306,1.5405 -11.23944,4.4068 -17.0625,5.9473 -1.84141,0.487 -4.38648,-1.287 -5.71484,0.078 -1.32836,1.365 1.77001,4.8379 0.0781,5.7129 -3.38377,1.75 -7.83047,-1.0977 -11.42773,0.1562 -2.54364,0.8867 -3.75617,3.8625 -5.63477,5.793 -3.78317,1.9566 -7.23207,4.7798 -11.3496,5.8691 -3.68283,0.9744 -7.91033,-1.3068 -11.42774,0.1563 -2.77028,1.1522 -7.54702,4.8682 -12.66992,8.5996 H 4597.7168 c 1.2653,0 2.2832,-1.0916 2.2832,-2.4473 v -1960.457 c -4.2889,-1.1973 -8.6903,-2.0896 -12.6855,-4.0195 -10.0011,-4.8311 -18.8018,-11.9191 -28.8028,-16.75 -5.4236,-2.62 -11.3556,-4.0995 -17.2187,-5.4805 -2.3535,-0.5545 -10.7255,0.8393 -11.4278,0.1563 -3.0523,-2.9704 -2.4271,-8.8409 -5.8691,-11.3497 -0.2457,-0.1772 -32.9775,-10.3979 -34.4375,-10.9589 -24.556,-9.4357 1.9174,-0.6472 -23.0898,-16.8301 -3.1983,-2.0697 -7.9975,1.8132 -11.4278,0.1562 -2.4257,-1.1717 -3.4624,-4.2825 -5.791,-5.6367 -7.3637,-4.2826 -15.8601,-6.4873 -23.0117,-11.1152 -4.5226,-2.9271 -7.0614,-8.3446 -11.584,-11.2715 -1.5991,-1.0349 -3.898,0.6558 -5.7129,0.078 -4.0588,-1.2916 -7.3597,-4.5821 -11.5059,-5.5586 -3.7077,-0.8733 -7.9974,1.8132 -11.4277,0.1563 -1.7151,-0.8285 1.2886,-4.3845 -0.078,-5.7129 -1.3652,-1.3284 -3.9997,0.9067 -5.7149,0.078 -4.8506,-2.3433 -6.4483,-9.6377 -11.582,-11.2715 -3.6302,-1.1551 -7.9974,1.8112 -11.4277,0.1543 -1.7152,-0.8284 1.2862,-4.3846 -0.08,-5.7129 0,-0.011 -17.1145,0.2454 -17.1406,0.2344 -2.5671,-0.8169 -3.1711,-5.0191 -5.793,-5.6367 -9.5554,-2.2508 -19.0235,1.8478 -28.5684,0.3906 -7.7631,-1.1852 -15.212,-3.9674 -22.9335,-5.4023 -1.8728,-0.3485 -4.3474,1.4066 -5.7129,0.078 -3.0524,-2.9703 -2.8168,-8.37935 -5.8692,-11.34965 -1.3648,-1.32839 -3.8099,0.0524 -5.7148,0.0781 -11.4274,0.15609 -22.8539,0.31078 -34.2813,0.4668 -7.6184,0.10393 -15.44,2.05943 -22.8554,0.3125 -2.6223,-0.61758 -3.3673,-4.46308 -5.793,-5.63477 -1.7507,-0.84571 -14.5675,0.19727 -17.1406,0.23242 -20.9503,0.28573 -41.9013,0.57349 -62.8516,0.85938 -28.5687,0.38986 -57.1383,0.77811 -85.707,1.16797 -1.3856,0.0189 -16.9547,0.41549 -17.1407,0.23437 -1.3655,-1.32831 1.2882,-4.3845 -0.078,-5.71289 -0.5624,-0.54701 -26.3929,0.359 -28.5703,0.38867 -13.3995,0.18293 2.7132,1.31114 -11.5039,-5.55664 -0.6143,-0.29671 -2.5665,-0.42382 -5.1836,-0.44531 z M 1755.2383,1731.7715 c 0.9232,-0.013 1.8463,-0.024 2.7695,-0.037 0.7494,-0.2645 1.5129,-0.5157 2.0918,-0.4981 -1.7488,-0.3821 -4.8783,-0.6888 -4.8613,0.5352 z m 5.7129,-0.078 c 0.5471,-0.01 0.2651,-0.1616 -0.3555,-0.3321 0.1458,0.073 0.2727,0.172 0.3555,0.3321 z m -0.3555,-0.3321 c -0.1432,-0.072 -0.3041,-0.119 -0.4941,-0.125 0.1899,0.042 0.3432,0.084 0.4941,0.125 z m 314.2832,-72.8691 c -0.153,-0.8148 -0.2896,-1.6248 -0.4082,-2.4297 -0.322,-1.0701 -0.6283,-2.2051 -0.2754,-2.9355 -0.026,-1.9046 -1.8265,5.7413 0.078,5.7148 0.3337,0 0.5164,-0.1362 0.6055,-0.3496 z m 1572.4902,-260.6875 c -1.5179,1.1659 -2.3858,2.262 0,0 z m 117.2657,-190.9258 c -2.6424,-0.8002 -5.4957,-0.2854 0,0 z"
       transform="scale(0.26458333)"
       id="path1475"
       inkscape:connector-curvature="0" />
  </g>
  <g
     inkscape:groupmode="layer"
     id="layer5"
     inkscape:label="Mountain closer"
     style="display:inline"
     sodipodi:insensitive="true">
    <path
       style="fill:#6c92bf;fill-opacity:1;stroke:none;stroke-width:0.99999994px;stroke-linecap:butt;stroke-linejoin:miter;stroke-opacity:1;filter:url(#filter5753)"
       d="m 4457.7285,2184.6348 c -2.1514,-0.053 -4.2679,0.1153 -6.3008,0.7929 -2.5553,0.8518 -3.0997,5.0615 -5.7129,5.7149 -5.5438,1.3859 -11.4283,0 -17.1425,0 h -11.4297 -51.4278 -17.1425 c -3.8094,0 -7.694,-0.7472 -11.4297,0 -5.9067,1.1812 -11.2363,4.5336 -17.1426,5.7148 -3.7357,0.7472 -7.6183,0 -11.4277,0 h -17.1446 -62.8554 -40 c -5.7143,0 -12.0335,-2.5555 -17.1446,0 -1.7038,0.8519 1.3467,4.3661 0,5.7129 -1.347,1.3469 -3.8084,0 -5.7129,0 H 4160 h -34.2852 -62.8574 c -2.9692,0 -27.8122,-0.5065 -28.5722,0 -4.4826,2.9885 -6.6089,9.0203 -11.4278,11.4297 -3.6382,1.8192 -28.6695,-1.8719 -34.2851,0 -4.0407,1.3469 -7.389,4.368 -11.4297,5.7148 -4.9402,1.6469 -24.9344,-1.818 -28.5703,0 -2.4095,1.2048 -3.3058,4.5082 -5.7149,5.7129 -3.4076,1.7037 -8.0224,-1.7037 -11.4297,0 -2.4094,1.2046 -3.3038,4.5102 -5.7129,5.7149 -1.7038,0.8518 -3.8103,0 -5.7148,0 -3.8098,0 -7.8153,-1.2047 -11.4297,0 -5.1107,1.7036 -6.3167,9.7241 -11.4277,11.4277 -18.8251,6.2751 -6.2167,-10.422 -17.1426,11.4297 -3.1695,2.1131 -7.7317,-0.9239 -11.4277,0 -4.1322,1.033 -7.4752,4.133 -11.4297,5.7148 -5.5926,2.237 -11.2991,4.252 -17.1426,5.7129 -1.8478,0.4619 -4.0114,-0.8519 -5.7148,0 -2.4095,1.2046 -3.3035,4.5102 -5.7129,5.7149 -3.3718,1.6857 -13.2142,-1.3102 -17.1446,0 -4.0407,1.3468 -7.3874,4.368 -11.4277,5.7148 -4.0248,1.3415 -21.324,-1.5335 -22.8574,0 -3.0117,3.0117 -2.1711,9.0652 -5.7149,11.4278 -3.1697,2.1132 -7.6182,0 -11.4277,0 -6.0172,0 -23.8369,-1.1838 -28.5723,0 -5.8435,1.4609 -11.2362,4.5335 -17.1425,5.7148 -7.4711,1.4942 -15.2385,0 -22.8575,0 h -40 -85.7129 -28.5722 c -3.8096,0 -7.7319,-0.9239 -11.4278,0 -5.8436,1.4609 -11.201,4.7245 -17.1425,5.7148 -7.5154,1.2525 -15.2385,0 -22.8575,0 -1.9048,0 -4.1299,-1.0566 -5.7148,0 -4.4827,2.9884 -6.609,9.0184 -11.4277,11.4278 -3.5071,1.7535 -25.03,-1.7712 -28.5723,0 -2.4094,1.2046 -3.1016,5.0615 -5.7148,5.7148 -5.5437,1.386 -11.4284,0 -17.1426,0 h -34.2852 c -30.5797,0 12.9416,-1.206 -28.5722,5.7129 -9.3942,1.5657 -19.2316,-1.8677 -28.5704,0 -5.9063,1.1813 -11.2362,4.5335 -17.1425,5.7149 -3.7355,0.7471 -7.8927,-1.4149 -11.4297,0 -6.3766,2.5505 -11.4283,7.6201 -17.1426,11.4296 -5.7143,0 -11.5989,-1.3858 -17.1426,0 -5.2266,1.3067 -6.611,9.0184 -11.4297,11.4278 -3.4074,1.7036 -8.0204,-1.7037 -11.4277,0 -2.4094,1.2046 -3.1015,5.0615 -5.7148,5.7148 -5.5437,1.3861 -11.4284,0 -17.1426,0 -3.8096,1.9048 -7.3871,4.3661 -11.4278,5.7129 -1.8069,0.6024 -4.0111,-0.8518 -5.7148,0 -6.1427,3.0714 -10.9999,8.3584 -17.1426,11.4297 -5.3874,2.6937 -11.7551,3.021 -17.1426,5.7148 -6.1426,3.0713 -10.7661,8.8772 -17.1425,11.4278 -3.5371,1.4148 -7.6942,-0.7472 -11.4297,0 -5.9066,1.1812 -11.2362,4.5336 -17.1426,5.7148 -3.7355,0.7472 -8.0203,-1.7036 -11.4277,0 -1.7036,0.8519 1.807,5.1106 0,5.7129 -10.8421,3.6141 -23.0805,-2.2413 -34.2871,0 -4.1765,0.8353 -7.2513,4.8796 -11.4278,5.7149 -5.6033,1.1207 -11.4283,0 -17.1426,0 -3.8095,0 -7.8925,-1.4148 -11.4296,0 -6.3765,2.5506 -10.6274,9.2579 -17.1426,11.4296 -3.4416,1.1472 -40.8028,0 -45.7149,0 h -34.2851 c -3.7549,0 -13.9186,1.0746 -17.1426,0 -4.0406,-1.3469 -7.3872,-4.3679 -11.4277,-5.7148 -2.8729,-0.9576 -32.7945,0 -34.2871,0 h -45.7129 -40 c -5.7143,0 -11.601,-1.3859 -17.1446,0 -4.132,1.033 -7.3871,4.3679 -11.4277,5.7148 -3.614,1.2047 -7.6181,0 -11.4277,0 H 2725.7148 2680 c -9.5238,0 -19.1781,-1.5657 -28.5723,0 -5.9415,0.9902 -11.2361,4.5316 -17.1425,5.7129 -18.2076,3.6416 -15.3341,1.6303 -10.3633,-0.4433 -3.9524,1.3677 -9.6726,3.3133 -18.2071,6.1582 -1.8479,0.4619 -3.81,0 -5.7148,0 h -11.4277 -40 c -3.0526,0 -26.9369,0.8177 -28.5723,0 -2.4094,-1.2047 -3.1015,-5.0616 -5.7148,-5.7149 -5.5437,-1.3859 -11.4284,0 -17.1426,0 h -11.4278 -57.1425 -45.7149 c -7.619,0 -15.7833,-2.8297 -22.8574,0 -5.0021,2.0008 -6.4255,9.4289 -11.4277,11.4297 -5.3056,2.1223 -11.4303,0 -17.1446,0 h -45.7129 -120 -40 -17.1425 c -3.8095,0 -7.6942,-0.7471 -11.4297,0 -5.9065,1.1813 -11.2012,4.7227 -17.1426,5.7129 -5.6365,0.9395 -11.4283,0 -17.1426,0 h -51.4297 -120 H 1880 c -1.9048,0 -4.0111,-0.8518 -5.7148,0 -6.1427,3.0714 -10.7661,8.8791 -17.1426,11.4297 -2.0459,0.8183 -30.4521,0 -34.2852,0 -1.9047,0 -4.0112,-0.8518 -5.7148,0 -2.4094,1.2047 -3.3056,4.5102 -5.7149,5.7148 -1.7391,0.8696 -14.5691,0 -17.1425,0 H 1731.4277 1640 1611.4277 c -3.8096,0 -7.6922,0.7471 -11.4277,0 -5.9064,-1.1812 -11.2011,-4.7246 -17.1426,-5.7148 -7.6721,-1.2787 -37.0482,0 -45.7148,0 -3.1895,0 -25.9545,0.8719 -28.5703,0 -2.5555,-0.8518 -3.1594,-4.8631 -5.7149,-5.7148 -9.035,-3.0118 -19.5371,3.0116 -28.5722,0 -6.5153,-2.1718 -10.7661,-8.8772 -17.1426,-11.4278 -3.5371,-1.4148 -7.6923,0.7472 -11.4278,0 -5.9063,-1.1812 -11.2362,-4.5336 -17.1425,-5.7148 -3.7355,-0.7472 -7.8927,1.4148 -11.4297,0 -6.3766,-2.5506 -10.5391,-9.5411 -17.1426,-11.4278 -7.3259,-2.0931 -15.315,1.0775 -22.8574,0 -5.9629,-0.8517 -11.2012,-4.7246 -17.1426,-5.7148 -10.9708,-1.8285 -35.9428,2.443 -45.7148,0 -2.6134,-0.6533 -3.3035,-4.5101 -5.7129,-5.7148 -2.0411,-1.0205 -32.9644,0 -34.2871,0 h -57.1426 -200 -160.00002 -45.71485 c -1.35787,0 -21.5747,-0.6404 -22.85546,0 -2.40934,1.2047 -3.30547,4.5101 -5.71485,5.7148 -3.3157,1.6579 -28.79947,-1.3714 -34.28515,0 -5.84353,1.4609 -11.23812,4.5336 -17.14454,5.7148 -3.73553,0.7471 -7.61823,0 -11.42773,0 h -17.14258 -40 c -5.71427,0 -11.53928,-1.1207 -17.14258,0 -4.17649,0.8354 -7.29768,4.6799 -11.42968,5.7129 -5.5437,1.3859 -11.42828,0 -17.14258,0 h -34.28516 c -5.71427,0 -11.83699,-2.1223 -17.14258,0 -6.37651,2.5506 -10.7661,8.8791 -17.14257,11.4297 -3.53708,1.4149 -7.62019,0 -11.42969,0 h -40 -40 c -5.71431,0 -11.53928,-1.1206 -17.14258,0 -4.17649,0.8353 -7.29573,4.6799 -11.42773,5.7129 -4.21085,1.0527 -25.2244,-1.6739 -28.57227,0 -2.40934,1.2047 -3.10153,5.0615 -5.71484,5.7149 -5.5437,1.3858 -11.42829,0 -17.14258,0 -1.90476,0 -3.90783,-0.6023 -5.71485,0 -4.04061,1.3468 -7.88388,3.3522 -11.42773,5.7148 -2.24133,1.4942 -3.10152,5.0616 -5.71484,5.7148 -5.54367,1.386 -11.72155,-1.8069 -17.14258,0 -6.5153,2.1718 -10.76607,8.8772 -17.14258,11.4278 -3.53705,1.4148 -7.69219,-0.7472 -11.42773,0 -48.11244,9.6224 -0.17681,0.087 -22.85743,11.4277 -1.70367,0.8519 -4.36797,-1.3468 -5.71484,0 -1.34687,1.3469 1.34687,4.3679 0,5.7149 -1.34687,1.3469 -4.01117,-0.8518 -5.71484,0 -2.40935,1.2046 -3.30354,4.5101 -5.71289,5.7148 -1.70367,0.8518 -3.96409,-0.7503 -5.71485,0 -11.7444,5.0333 -22.32118,12.6561 -34.28515,17.1426 -3.56698,1.3376 -7.89264,-1.4149 -11.42969,0 -6.37652,2.5506 -10.99991,8.3564 -17.14258,11.4277 -5.38748,2.6938 -11.7551,3.0211 -17.14258,5.7149 -2.40935,1.2047 -3.30549,4.5101 -5.71484,5.7148 -1.70367,0.8518 -4.01117,-0.8518 -5.71485,0 -2.40935,1.2047 -3.09958,5.0616 -5.71289,5.7148 -5.54368,1.386 -11.53925,-1.1207 -17.14257,0 -4.17648,0.8354 -7.25323,4.8776 -11.42969,5.7129 -5.60332,1.1206 -11.42829,0 -17.14258,0 H 97.142578 22.857422 0 v 511.6328 L 508.0332,3100 h 4089.6836 c 1.2653,0 2.2832,-1.0916 2.2832,-2.4473 v -912.125 h -80 -51.4277 c -3.5715,0 -7.258,-0.7047 -10.8438,-0.7929 z m -1833.8066,240.3496 c 12.8176,-4.4356 5.3046,-2.213 0,0 z"
       transform="scale(0.26458333)"
       id="path5201"
       inkscape:connector-curvature="0" />
  </g>
  <g
     inkscape:groupmode="layer"
     id="layer6"
     inkscape:label="mountain closest"
     style="display:inline"
     sodipodi:insensitive="true">
    <path
       style="opacity:0.98999999;fill:#48627f;fill-opacity:1;stroke:none;stroke-width:0.99999994px;stroke-linecap:butt;stroke-linejoin:miter;stroke-opacity:1;filter:url(#filter5735)"
       d="m 4559.5098,2402.2246 c -13.2287,0.07 -26.7043,0.6328 -39.5098,0.6328 H 4485.7148 4480 c -1.9049,0 -4.011,-0.8518 -5.7148,0 -2.4095,1.2047 -3.3035,4.5103 -5.7129,5.7149 -1.7035,0.8519 -3.81,0 -5.7149,0 H 4457.1426 4440 4411.4277 c -3.8097,0 -7.7321,-0.9239 -11.4277,0 -4.1322,1.033 -7.389,4.3659 -11.4297,5.7129 -2.7685,0.9228 -37.4185,0 -39.998,0 -1.9049,0 -4.3679,-1.347 -5.7149,0 -1.3466,1.3469 1.347,4.3679 0,5.7148 -1.3466,1.3469 -3.8099,0 -5.7148,0 h -5.7149 -22.8554 -74.2871 -22.8575 c -3.8097,0 -7.765,-1.0466 -11.4277,0 -9.8627,2.8179 -18.5592,9.2025 -28.5723,11.4277 -7.4377,1.6528 -15.2972,-0.9451 -22.8574,0 -7.7926,0.9741 -15.0806,4.6042 -22.8555,5.7149 -5.6568,0.8081 -11.4283,0 -17.1425,0 H 4080 c -5.7143,0 -11.8373,-2.1223 -17.1426,0 -5.0022,2.0008 -6.4278,9.4289 -11.4297,11.4297 -5.3057,2.1223 -11.4279,0 -17.1425,0 -6.7805,0 -40.1669,-1.1091 -45.7129,0 -4.1764,0.8353 -7.2533,4.8776 -11.4297,5.7129 -5.6035,1.1207 -11.5062,-0.9394 -17.1426,0 -5.9414,0.9903 -11.2363,4.5335 -17.1426,5.7148 -3.7357,0.7471 -7.6203,0 -11.4297,0 h -17.1425 -40 c -5.7143,0 -11.7216,-1.807 -17.1426,0 -6.5152,2.1718 -10.7662,8.8771 -17.1426,11.4277 -3.5373,1.4148 -7.6183,0 -11.4277,0 h -34.2871 -17.1426 c -1.9048,0 -4.0113,-0.8519 -5.7149,0 -2.4094,1.2046 -3.0996,5.0615 -5.7129,5.7149 -5.5437,1.3859 -11.5988,-1.3861 -17.1425,0 -2.6133,0.6533 -3.3055,4.5102 -5.7149,5.7148 -1.7036,0.8519 -3.8101,0 -5.7148,0 h -28.5703 -74.2871 -68.5704 -11.4296 c -5.7143,0 -11.6482,-1.5698 -17.1426,0 -8.1906,2.3402 -14.5419,9.5798 -22.8574,11.4278 -36,7.9999 -17.6,-3.2001 -40,0 -9.6149,1.3735 -18.9555,4.3413 -28.5704,5.7148 -3.7712,0.5387 -7.6201,0 -11.4296,0 h -22.8575 -40 -5.7129 c -1.9048,0 -4.3679,1.3469 -5.7148,0 -1.3469,-1.3469 1.3469,-4.368 0,-5.7148 -1.3469,-1.347 -3.81,0 -5.7148,0 H 3342.8574 3280 c -9.5238,0 -19.1781,1.5656 -28.5723,0 -5.9415,-0.9902 -11.2361,-4.5316 -17.1425,-5.7129 -3.7355,-0.7471 -7.6182,0 -11.4278,0 h -40 c -5.7142,0 -11.506,0.9394 -17.1426,0 -5.9413,-0.9902 -11.2362,-4.5336 -17.1425,-5.7149 -3.7356,-0.7471 -7.6202,0 -11.4297,0 H 3120 h -57.1426 -68.5722 c -4.988,0 -32.0312,-0.7513 -34.2852,0 -6.5153,2.1718 -10.766,8.8771 -17.1426,11.4278 -3.537,1.4147 -7.6202,0 -11.4297,0 h -17.1425 -57.1426 c -5.7143,0 -11.5393,-1.1207 -17.1426,0 -4.1765,0.8352 -7.2113,5.1125 -11.4277,5.7148 -9.4281,1.3469 -19.4149,-2.6164 -28.5723,0 -5.1802,1.4801 -6.4255,9.4269 -11.4277,11.4277 -5.3057,2.1222 -11.5081,-0.9394 -17.1446,0 -5.9415,0.9902 -11.2361,4.5336 -17.1425,5.7149 -3.7355,0.7471 -7.6922,-0.7472 -11.4278,0 -5.9064,1.1812 -11.2362,4.5336 -17.1426,5.7148 -5.6033,1.1207 -11.7214,-1.807 -17.1425,0 -4.0406,1.3469 -7.2977,4.6819 -11.4297,5.7149 -3.6958,0.924 -7.8908,-1.4148 -11.4278,0 -6.3764,2.5506 -10.7661,8.8771 -17.1425,11.4277 -9.0178,3.6071 -21.1511,-6.9075 -28.5723,5.7148 -6.1427,3.0713 -10.9999,8.3564 -17.1426,11.4278 -5.3874,2.6937 -11.55,3.4778 -17.1426,5.7148 -3.9546,1.5819 -7.3891,4.3681 -11.4296,5.7149 -7.2281,2.4094 -16.4114,-7.228 -22.8575,0 -6.5153,2.1718 -10.7661,8.8771 -17.1425,11.4277 -3.537,1.4148 -7.6922,-0.7471 -11.4278,0 -5.9064,1.1813 -11.2361,4.5336 -17.1426,5.7148 -3.7356,0.7471 -7.6201,0 -11.4296,0 h -51.4278 -11.4297 c -3.8095,0 -7.8137,-1.2046 -11.4277,0 -2.5555,0.8518 -3.3055,4.5082 -5.7148,5.7129 -1.7037,0.8518 -3.8081,0 -5.7129,0 H 2422.8574 2400 2388.5723 c -1.9047,0 -4.0112,-0.8519 -5.7149,0 -2.4093,1.2046 -3.1015,5.0615 -5.7148,5.7149 -5.5437,1.3859 -11.4283,0 -17.1426,0 h -17.1426 c -3.8095,0 -7.8927,-1.4149 -11.4297,0 -6.3764,2.5506 -10.7661,8.8791 -17.1425,11.4297 -3.537,1.4149 -7.6182,0 -11.4278,0 H 2285.7148 2240 c -3.8095,0 -7.6921,-0.7471 -11.4277,0 -5.9064,1.1813 -11.2381,4.5315 -17.1446,5.7129 -9.3388,1.8677 -19.176,-1.5658 -28.5703,0 -5.9414,0.9902 -11.2361,4.5335 -17.1426,5.7148 -3.7356,0.7471 -7.8925,-1.4148 -11.4296,0 -6.3765,2.5506 -10.6274,9.2559 -17.1426,11.4277 -5.4211,1.807 -11.5393,-1.1207 -17.1426,0 -4.1765,0.8353 -7.3871,4.368 -11.4277,5.7149 -1.807,0.6023 -3.8101,0 -5.7149,0 H 2085.7148 2040 2011.4277 c -3.8096,0 -7.8137,1.2046 -11.4277,0 -2.5555,-0.8519 -3.1594,-4.8631 -5.7148,-5.7149 -3.614,-1.2047 -7.6182,0 -11.4278,0 h -28.5722 c -8.6667,0 -38.0408,1.2787 -45.7129,0 -5.9415,-0.9903 -11.2382,-4.5315 -17.1446,-5.7129 -7.9365,-1.5872 -21.4273,2.381 -28.5703,0 -6.5152,-2.1717 -10.7661,-8.8791 -17.1426,-11.4296 -3.5371,-1.4149 -7.6201,0 -11.4296,0 -5.7143,0 -11.5393,1.1206 -17.1426,0 -4.1765,-0.8354 -7.2513,-4.8777 -11.4278,-5.7129 -5.6033,-1.1206 -11.4282,0 -17.1425,0 -1.9047,0 -4.0112,0.8519 -5.7149,0 -2.4093,-1.2046 -3.3055,-4.5102 -5.7148,-5.7149 -1.2808,-0.6403 -21.4995,0 -22.8574,0 H 1720 h -102.8574 -114.2852 -34.2851 -11.4297 c -1.9048,0 -4.0112,0.8519 -5.7149,0 -2.4093,-1.2046 -3.3036,-4.5102 -5.7129,-5.7148 -1.7037,-0.8519 -3.81,0 -5.7148,0 h -28.5723 c -3.8096,0 -8.0204,1.7036 -11.4277,0 -1.7037,-0.8519 1.3469,-4.3681 0,-5.7149 -2.6937,-2.6938 -8.0203,1.7036 -11.4277,0 -6.1426,-3.0714 -11.002,-8.3564 -17.1446,-11.4277 -3.4074,-1.7037 -7.7319,0.9239 -11.4277,0 -5.8435,-1.4609 -11.2361,-4.5335 -17.1426,-5.7148 -9.3388,-1.8678 -19.178,1.5657 -28.5722,0 -5.9415,-0.9902 -11.2362,-4.5316 -17.1426,-5.7129 -6.3492,-1.2698 -23.8085,1.9048 -28.5703,0 -5.0022,-2.0008 -6.4276,-9.4289 -11.4297,-11.4297 -5.3056,-2.1223 -11.4283,0 -17.1426,0 h -28.5723 -57.1425 c -9.5238,0 -19.1762,-1.5657 -28.5704,0 -5.9414,0.9902 -11.2361,4.5336 -17.1425,5.7148 -3.7355,0.7472 -7.6202,0 -11.4297,0 H 1080 1040 914.28516 862.85742 c -5.7143,0 -11.83699,-2.1222 -17.14258,0 -5.00213,2.0009 -6.94701,8.4394 -11.42968,11.4278 -1.58484,1.0566 -3.80813,0 -5.71289,0 -5.71431,0 -11.60084,-1.3859 -17.14454,0 -2.61331,0.6533 -3.30355,4.5101 -5.71289,5.7148 -3.65155,1.8258 -18.258,-1.5331 -22.85742,0 -4.04062,1.3469 -7.29768,4.6819 -11.42969,5.7148 -3.69577,0.9239 -7.61819,0 -11.42773,0 h -17.14258 -74.28515 -34.28711 c -3.80954,0 -7.6922,-0.7471 -11.42774,0 -5.90642,1.1813 -11.29901,4.252 -17.14258,5.7129 -2.07416,0.5185 -16.44261,-0.7 -17.14257,0 -1.34688,1.3468 1.34687,4.368 0,5.7149 -2.69375,2.6937 -8.02233,-1.7037 -11.42969,0 -2.40938,1.2046 -3.47351,4.2206 -5.71485,5.7148 -3.54383,2.3626 -8.41601,2.7031 -11.42773,5.7149 -6.95989,6.9599 -2.6759,12.7666 -11.42773,17.1425 -1.7037,0.8519 -4.01119,-0.8517 -5.71485,0 -4.81871,2.4093 -6.61098,9.0184 -11.42969,11.4278 -5.11101,2.5555 -12.03156,-2.5555 -17.14257,0 -1.7037,0.8518 1.34687,4.368 0,5.7148 -1.34688,1.3469 -4.0092,-0.8518 -5.71289,0 -2.40934,1.2047 -3.30551,4.5103 -5.71485,5.7149 -1.7037,0.8519 -4.01114,-0.8518 -5.71484,0 -8.75188,4.376 -4.46781,10.1826 -11.42774,17.1425 -1.34687,1.3469 -3.81007,0 -5.71484,0 h -17.14258 c -3.8095,0 -7.69411,-0.7471 -11.42969,0 -5.90638,1.1813 -11.20112,4.7227 -17.14257,5.7129 -9.39421,1.5657 -19.04651,0 -28.57032,0 h -57.14257 c -26.01306,0 -0.32849,-2.6932 -17.14454,5.7149 -1.82099,0.9105 -23.46333,0 -28.57031,0 h -40 c -1.9467,0 -19.76481,-1.0309 -22.85742,0 -4.04061,1.3468 -7.38712,4.368 -11.42773,5.7148 -1.80702,0.6024 -3.81009,0 -5.71485,0 -7.00215,0 -30.78671,-1.3993 -34.28515,0 -5.00216,2.0009 -6.42754,9.4269 -11.42969,11.4278 -7.93651,3.1746 -20.10471,-2.1164 -28.57031,0 -4.13201,1.033 -7.29768,4.6818 -11.42969,5.7148 -3.69578,0.9239 -7.61821,0 -11.42774,0 -1.90476,1.9048 -3.30549,4.5102 -5.71484,5.7148 -1.70367,0.8518 -4.01117,-0.8517 -5.71484,0 -2.40935,1.2047 -3.47156,4.2187 -5.71289,5.7129 -3.54385,2.3625 -7.88584,3.3523 -11.429692,5.7149 -2.241328,1.4942 -3.305489,4.5102 -5.714844,5.7148 -1.703671,0.8519 -4.366018,-1.3468 -5.71289,0 -1.346869,1.3469 1.346872,4.3681 0,5.7149 -1.346869,1.3468 -4.367972,-1.3468 -5.714844,0 -3.01169,3.0116 -3.35228,7.8839 -5.714844,11.4277 -1.494221,2.2413 -3.808129,3.81 -5.71289,5.7148 -1.904761,1.9047 -3.473516,4.2187 -5.714844,5.7129 -3.543848,2.3625 -7.88584,3.3523 -11.429688,5.7149 -2.241327,1.4942 -3.808129,3.8101 -5.71289,5.7148 -1.904761,1.9048 -4.510165,3.3056 -5.714844,5.7149 -3.941019,7.8821 6.919756,5.1104 -5.714844,11.4277 -1.703671,0.8518 -4.861055,-1.7037 -5.71289,0 -1.703671,3.4073 1.204677,7.8136 0,11.4277 -0.851836,2.5556 -4.220626,3.4735 -5.714844,5.7149 -2.362567,3.5438 -2.170994,9.0672 -5.714844,11.4297 -3.169715,2.1132 -8.0203923,-1.7036 -11.4277342,0 -1.7036709,0.8519 0.6023387,3.9059 0,5.7129 C 4.367974,2818.3258 1.3468701,2821.6742 0,2825.7148 v 2.379 c 0.20675062,1.1629 0.49989599,2.3341 0,3.3339 v 266.125 C 0,3098.9084 1.0178579,3100 2.2832031,3100 H 4597.7168 c 1.2653,0 2.2832,-1.0916 2.2832,-2.4473 v -692.7754 c -5.6987,-0.8002 -11.405,-1.51 -17.1426,-1.9199 -7.5622,-0.5401 -15.4104,-0.675 -23.3476,-0.6328 z"
       transform="scale(0.26458333)"
       id="path1494"
       inkscape:connector-curvature="0" />
    <g
       inkscape:groupmode="layer"
       id="layer7"
       inkscape:label="Telescope"
       style="display:inline">
      <path
         id="rect870"
         style="fill:#48627f;fill-opacity:1;stroke:none;stroke-width:25.60097694;stroke-linecap:square;stroke-linejoin:miter;stroke-miterlimit:63.20000076;stroke-dasharray:none;stroke-opacity:0;paint-order:markers fill stroke"
         d="M 59.146228,662.51664 H 262.5871 c 0.5196,0 0.9379,0.32185 0.9379,0.72163 v 111.7984 c 0,0.39979 -0.4183,0.72164 -0.9379,0.72164 H 59.146228 c -0.519593,0 -0.937894,-0.32185 -0.937894,-0.72164 v -111.7984 c 0,-0.39978 0.418301,-0.72163 0.937894,-0.72163 z m 180.386722,88.1913 c -32.26277,32.26277 -125.0698,32.26277 -157.332562,10e-6 -32.262767,-32.26277 -32.262768,-125.0698 0,-157.33257 32.262762,-32.26277 125.069792,-32.26277 157.332562,0 32.26277,32.26277 32.26277,125.0698 0,157.33256 z"
         inkscape:connector-curvature="0" />
      <ellipse
         style="opacity:0.98999999;fill:#ffce55;fill-opacity:0.66666667;stroke:#48627f;stroke-width:4.60375023;stroke-linecap:square;stroke-linejoin:miter;stroke-miterlimit:63.20000076;stroke-dasharray:none;stroke-opacity:1;paint-order:markers fill stroke"
         id="path877"
         cx="208.49165"
         cy="609.0708"
         rx="24.341665"
         ry="23.8125" />
      <path
         style="opacity:0.98999999;fill:#48627f;fill-opacity:1;stroke:none;stroke-width:3.44429779;stroke-linecap:square;stroke-linejoin:miter;stroke-miterlimit:63.20000076;stroke-dasharray:none;stroke-opacity:1;paint-order:markers fill stroke"
         d="m 259.80045,559.21928 a 9.917071,4.9699818 63.125183 0 0 -0.53633,0.54152 l -61.44389,45.59086 c -0.19628,0.14563 -0.24485,0.45739 -0.10904,0.69904 l 9.14268,16.27001 c 0.1358,0.24165 0.40303,0.31908 0.59933,0.17345 l 62.03716,-46.03105 1.31527,-0.97592 c 0.19628,-0.14565 0.24485,-0.45741 0.10905,-0.69906 l -0.19585,-0.34852 a 9.917071,4.9699818 63.125183 0 0 -2.03914,-9.59181 9.917071,4.9699818 63.125183 0 0 -6.77015,-6.08492 l -0.13755,-0.24476 c -0.13578,-0.24165 -0.40303,-0.31907 -0.59932,-0.17345 l -0.73263,0.5436 a 9.917071,4.9699818 63.125183 0 0 -0.63958,0.331 z"
         id="rect934"
         inkscape:connector-curvature="0" />
    </g>
  </g>
  <g
     inkscape:groupmode="layer"
     id="layer8"
     inkscape:label="Stars">
    <path
       sodipodi:type="star"
       style="opacity:0.98999999;fill:#fffb1d;fill-opacity:0.61194032;stroke:none;stroke-width:4.60374975;stroke-linecap:square;stroke-linejoin:miter;stroke-miterlimit:63.20000076;stroke-dasharray:none;stroke-opacity:1;paint-order:markers fill stroke"
       id="path948"
       sodipodi:sides="6"
       sodipodi:cx="218.01666"
       sodipodi:cy="224.36665"
       sodipodi:r1="21.166666"
       sodipodi:r2="10.583333"
       sodipodi:arg1="-1.5707963"
       sodipodi:arg2="-1.0471976"
       inkscape:flatsided="false"
       inkscape:rounded="0"
       inkscape:randomized="0.1"
       d="m 217.94905,202.42194 7.3298,13.14372 10.99109,-1.68748 -5.98024,12.07811 6.00121,9.52562 -11.00062,-3.27123 -7.36439,14.04134 -5.88041,-14.76545 -10.99109,1.68747 5.91489,-9.09709 -5.93586,-8.27331 11.00062,-0.9621 z"
       inkscape:transform-center-x="0.92294747"
       inkscape:transform-center-y="0.28565878" />
    <path
       sodipodi:type="star"
       style="opacity:0.98999999;fill:#f2fba2;fill-opacity:0.61194032;stroke:none;stroke-width:4.60374975;stroke-linecap:square;stroke-linejoin:miter;stroke-miterlimit:63.20000076;stroke-dasharray:none;stroke-opacity:1;paint-order:markers fill stroke"
       id="path950"
       sodipodi:sides="6"
       sodipodi:cx="490.00833"
       sodipodi:cy="183.09166"
       sodipodi:r1="17.357958"
       sodipodi:r2="8.6789789"
       sodipodi:arg1="-0.9151007"
       sodipodi:arg2="-0.39150192"
       inkscape:flatsided="false"
       inkscape:rounded="0"
       inkscape:randomized="0.1"
       d="m 500.13596,167.77553 -1.65455,13.24219 7.59536,4.43267 -8.56891,4.55126 -0.92009,10.66353 -7.93078,-10.31736 -7.62308,6.97001 0.94933,-12.37898 -10.36178,-5.68027 9.77249,-1.32247 0.92009,-10.66353 10.25601,8.79984 z"
       inkscape:transform-center-x="-0.29987382"
       inkscape:transform-center-y="0.85626935" />
    <path
       sodipodi:type="star"
       style="opacity:0.98999999;fill:#fffb1d;fill-opacity:0.61194033;stroke:none;stroke-width:4.60374975;stroke-linecap:square;stroke-linejoin:miter;stroke-miterlimit:63.20000076;stroke-dasharray:none;stroke-opacity:1;paint-order:markers fill stroke"
       id="path952"
       sodipodi:sides="6"
       sodipodi:cx="696.3833"
       sodipodi:cy="219.075"
       sodipodi:r1="14.119928"
       sodipodi:r2="7.0599637"
       sodipodi:arg1="0.22679885"
       sodipodi:arg2="0.75039762"
       inkscape:flatsided="false"
       inkscape:rounded="0"
       inkscape:randomized="0.1"
       d="m 709.06422,221.0833 -7.95888,2.45825 0.36007,9.28706 -5.60003,-7.51483 -10.20654,5.11163 5.37862,-8.1469 -9.79843,-7.32738 10.93219,-1.39876 1.04038,-8.9789 4.00093,8.27322 8.93805,-3.88144 -2.51104,8.98231 z"
       inkscape:transform-center-x="-0.32449554"
       inkscape:transform-center-y="0.27650285" />
    <path
       sodipodi:type="star"
       style="opacity:0.98999999;fill:#fffb1d;fill-opacity:0.61194033;stroke:none;stroke-width:4.60374975;stroke-linecap:square;stroke-linejoin:miter;stroke-miterlimit:63.20000076;stroke-dasharray:none;stroke-opacity:1;paint-order:markers fill stroke"
       id="path954"
       sodipodi:sides="6"
       sodipodi:cx="973.66663"
       sodipodi:cy="289.98334"
       sodipodi:r1="7.4835467"
       sodipodi:r2="3.7417734"
       sodipodi:arg1="0.78539816"
       sodipodi:arg2="1.3089969"
       inkscape:flatsided="false"
       inkscape:rounded="0"
       inkscape:randomized="0.1"
       d="m 978.70211,294.80119 -4.80863,-1.72208 -1.77469,4.72229 -1.63236,-5.45319 -4.47433,0.22841 4.07339,-2.82055 -2.08338,-5.26465 4.44035,1.8362 2.44696,-4.04331 1.32836,4.66009 5.35479,0.54236 -4.97852,2.80871 z"
       inkscape:transform-center-x="0.32706865"
       inkscape:transform-center-y="0.37770633" />
    <path
       sodipodi:type="star"
       style="opacity:0.98999999;fill:#fffb8f;fill-opacity:0.61194032;stroke:none;stroke-width:4.60374975;stroke-linecap:square;stroke-linejoin:miter;stroke-miterlimit:63.20000076;stroke-dasharray:none;stroke-opacity:1;paint-order:markers fill stroke"
       id="path956"
       sodipodi:sides="6"
       sodipodi:cx="953.55835"
       sodipodi:cy="178.85834"
       sodipodi:r1="9.5836163"
       sodipodi:r2="4.7918077"
       sodipodi:arg1="-0.11065722"
       sodipodi:arg2="0.41294155"
       inkscape:flatsided="false"
       inkscape:rounded="0"
       inkscape:randomized="0.1"
       d="m 963.57192,176.84374 -5.37225,4.4262 0.69665,4.49278 -5.5218,-1.75269 -4.55001,3.8312 0.34113,-6.14862 -4.27852,-0.91737 3.74153,-4.083 -0.5638,-5.38225 5.31718,2.49008 4.65137,-3.1121 -0.3727,5.41602 z"
       inkscape:transform-center-x="0.35627567"
       inkscape:transform-center-y="-0.23408426" />
    <path
       sodipodi:type="star"
       style="opacity:0.98999999;fill:#fffba1;fill-opacity:0.61194032;stroke:none;stroke-width:4.60374975;stroke-linecap:square;stroke-linejoin:miter;stroke-miterlimit:63.20000076;stroke-dasharray:none;stroke-opacity:1;paint-order:markers fill stroke"
       id="path958"
       sodipodi:sides="6"
       sodipodi:cx="232.83333"
       sodipodi:cy="450.84998"
       sodipodi:r1="13.798978"
       sodipodi:r2="6.8994894"
       sodipodi:arg1="0.076771891"
       sodipodi:arg2="0.60037067"
       inkscape:flatsided="false"
       inkscape:rounded="0"
       inkscape:randomized="0.1"
       d="m 245.93967,450.94035 -7.43742,3.17106 0.42724,9.46891 -6.34513,-4.4788 -7.21003,2.57799 1.65282,-8.94724 -7.07673,-2.66871 7.48277,-2.7274 -1.79576,-9.15891 6.49395,6.0582 8.1668,-5.83638 0.001,8.17202 z"
       inkscape:transform-center-x="-0.3057637"
       inkscape:transform-center-y="-0.53053665" />
  </g>
</svg>
